<?xml version="1.0" encoding="utf-8"?>
<!-- Generator: Adobe Illustrator 16.0.4, SVG Export Plug-In . SVG Version: 6.00 Build 0)  -->
<!DOCTYPE svg PUBLIC "-//W3C//DTD SVG 1.1//EN" "http://www.w3.org/Graphics/SVG/1.1/DTD/svg11.dtd">
<svg version="1.1" id="Layer_1" xmlns="http://www.w3.org/2000/svg" xmlns:xlink="http://www.w3.org/1999/xlink" x="0px" y="0px"
	 width="625px" height="595.279px" viewBox="0 0 625 595.279" enable-background="new 0 0 625 595.279" xml:space="preserve">
<g>
	
		<radialGradient id="SVGID_1_" cx="357.1458" cy="608.0325" r="564.6178" gradientTransform="matrix(1 0 0 -1 24.9448 586.6392)" gradientUnits="userSpaceOnUse">
		<stop  offset="0" style="stop-color:#FFE958"/>
		<stop  offset="0.1617" style="stop-color:#FEB886"/>
		<stop  offset="0.2745" style="stop-color:#FC9890"/>
		<stop  offset="0.3752" style="stop-color:#F979AF"/>
		<stop  offset="0.46" style="stop-color:#F760C4"/>
		<stop  offset="0.5368" style="stop-color:#ED47C5"/>
		<stop  offset="0.7021" style="stop-color:#B811D5"/>
		<stop  offset="0.7937" style="stop-color:#9A00D0"/>
		<stop  offset="0.871" style="stop-color:#8000C5"/>
		<stop  offset="1" style="stop-color:#5F0092"/>
	</radialGradient>
	<path fill="url(#SVGID_1_)" d="M313.883,588.479c-1.153,0-2.312,0.066-3.458-0.013c-2.839-0.194-5.677-0.428-8.51-0.702
		c-1.636-0.159-3.271-0.371-4.886-0.668c-2.097-0.386-4.177-0.869-6.26-1.328c-1.924-0.424-3.847-0.856-5.763-1.314
		c-1.325-0.316-2.66-0.618-3.953-1.039c-4.364-1.419-8.745-2.795-13.054-4.365c-4.508-1.645-8.972-3.422-13.396-5.278
		c-3.262-1.369-6.442-2.938-9.638-4.463c-3.542-1.692-7.086-3.383-10.575-5.18c-2.812-1.447-5.562-3.023-8.312-4.592
		c-4.938-2.812-9.884-5.616-14.771-8.516c-3.192-1.896-6.321-3.902-9.42-5.949c-3.79-2.503-7.536-5.075-11.269-7.663
		c-3.595-2.491-7.192-4.981-10.709-7.582c-3.521-2.601-6.965-5.309-10.404-8.018c-4.772-3.756-9.543-7.517-14.25-11.354
		c-2.97-2.422-5.821-4.987-8.729-7.486c-3.115-2.68-6.268-5.318-9.344-8.042c-2.955-2.615-5.839-5.312-8.744-7.981
		c-2.784-2.561-5.583-5.104-8.32-7.714c-2.615-2.492-5.156-5.061-7.735-7.591c-1.484-1.456-2.983-2.896-4.463-4.357
		c-1.286-1.269-2.569-2.542-3.827-3.839c-3.167-3.266-6.376-6.492-9.464-9.831c-3.726-4.025-7.375-8.122-10.996-12.241
		c-4.311-4.901-8.667-9.77-12.795-14.821c-3.88-4.747-7.662-9.597-11.183-14.613c-6.028-8.597-11.908-17.302-17.689-26.067
		c-7.52-11.399-14.486-23.14-20.798-35.254c-3.485-6.688-6.657-13.531-8.839-20.779c-1.342-4.453-2.737-8.898-3.848-13.411
		c-1.175-4.781-1.871-9.654-2.343-14.573c-0.534-5.551-0.326-11.066,0.215-16.567c0.31-3.146,0.926-6.281,1.63-9.373
		c0.875-3.841,1.874-7.66,3.015-11.431c1.981-6.552,4.491-12.91,7.273-19.167c5.559-12.5,12.257-24.378,19.608-35.887
		c5.932-9.287,12.021-18.482,18.854-27.14c4.958-6.282,10.064-12.454,15.271-18.533c11.715-13.681,24.274-26.564,37.36-38.933
		c8.375-7.915,16.787-15.8,25.36-23.5c7.14-6.413,14.491-12.595,21.837-18.772c5.329-4.481,10.718-8.901,16.237-13.146
		c5.993-4.606,12.077-9.11,18.29-13.416c6.346-4.396,12.83-8.603,19.373-12.699c11.044-6.917,22.483-13.131,34.279-18.68
		c7.02-3.302,14.16-6.326,21.442-8.999c3.126-1.146,6.334-2.073,9.523-3.041c2.874-0.872,5.745-1.776,8.667-2.455
		c2.922-0.677,5.902-1.107,8.863-1.611c1.621-0.275,3.249-0.521,4.883-0.706c6.186-0.699,12.379-0.566,18.561,0.015
		c15.559,1.461,30.53,5.423,45.151,10.802c15.285,5.623,30.031,12.432,43.885,21c8.77,5.426,17.295,11.259,25.769,17.14
		c15.83,10.982,31.32,22.438,46.479,34.334c5.387,4.228,10.57,8.721,15.729,13.229c5.74,5.02,11.368,10.167,16.997,15.312
		c2.916,2.664,5.775,5.395,8.579,8.177c4.323,4.29,8.628,8.602,12.851,12.991c7.042,7.32,13.683,15,20.181,22.805
		c8.816,10.591,17.128,21.566,24.912,32.937c4.802,7.015,9.254,14.253,13.556,21.586c4.411,7.52,8.666,15.123,12.373,23.018
		c3.005,6.397,5.652,12.939,7.987,19.617c1.829,5.232,3.329,10.547,4.452,15.963c1.465,7.056,2.046,14.177,1.768,21.398
		c-0.262,6.779-1.438,13.404-3.008,19.962c-1.607,6.713-3.865,13.235-6.37,19.67c-3.403,8.742-7.472,17.168-11.896,25.438
		c-6.786,12.687-14.512,24.771-22.775,36.534c-7.828,11.141-16.185,21.869-24.96,32.269c-5.129,6.079-10.326,12.108-15.684,17.986
		c-6.649,7.296-13.403,14.504-20.288,21.58c-5.81,5.971-11.729,11.848-17.851,17.495c-7.573,6.988-15.304,13.814-23.153,20.49
		c-6.639,5.645-13.479,11.059-20.358,16.409c-3.888,3.024-8.008,5.754-12.065,8.554c-4.415,3.043-8.854,6.051-13.331,9.001
		c-4.415,2.91-8.85,5.798-13.354,8.568c-4.795,2.95-9.646,5.814-14.537,8.603c-3.842,2.188-7.751,4.269-11.691,6.276
		c-5.103,2.603-10.216,5.191-15.418,7.583c-3.762,1.729-7.646,3.203-11.528,4.655c-4.034,1.511-8.104,2.94-12.208,4.246
		c-2.439,0.776-4.976,1.256-7.472,1.85c-2.179,0.52-4.362,1.013-6.546,1.516c-0.319,0.073-0.639,0.163-0.964,0.208
		c-2.009,0.278-4.013,0.625-6.031,0.803c-3.98,0.351-7.972,0.604-11.958,0.899C313.896,588.637,313.889,588.559,313.883,588.479z"/>
</g>
<path fill="#8000C5" d="M295.641-53.663c3.373,0.422,6.741,0.883,10.12,1.257c4.945,0.547,9.932,0.63,14.87,0.281
	c6.674-0.471,13.303-1.455,19.825-3.067c1.38-0.342,2.772-0.666,4.163-0.986c0.332-0.076,0.64-0.157,0.958,0.014
	c-1.366,0.917-2.994,1.028-4.521,1.407c-4.767,1.177-9.6,2.01-14.472,2.631c-5.539,0.707-11.104,1.153-16.667,0.644
	c-4.493-0.412-8.993-0.909-13.433-1.786C296.184-53.33,295.802-53.276,295.641-53.663z"/>
<path fill="#B811D5" d="M347.44-56.559c1.404-0.871,3.048-1.14,4.533-1.801c1.994-0.886,4.259-1.052,6.107-2.318
	c0.27-0.041,0.555-0.036,0.804-0.131c3.335-1.245,6.716-2.379,9.913-3.968c0.695-0.346,1.37-0.721,2.188-0.491
	c-0.948,1.015-2.316,1.217-3.503,1.739c-3.218,1.419-6.536,2.599-9.82,3.858c-3.239,1.24-6.617,2.031-9.848,3.279
	C347.664-56.332,347.486-56.329,347.44-56.559z"/>
<path fill="#D52DDB" d="M372.834-66.039c0.373-0.985,1.345-0.661,2.042-0.937C374.359-66.306,373.729-65.883,372.834-66.039z"/>
<path fill="#8000C5" d="M292.378-54.357c0.713,0.019,1.37,0.262,2.026,0.498C293.637-53.653,292.964-53.825,292.378-54.357z"/>
<path fill="#8000C5" d="M281.747-56.999c0.45,0.143,0.9,0.286,1.351,0.43C282.53-56.346,282.082-56.495,281.747-56.999z"/>
<path fill="#8000C5" d="M278.418-57.989c0.469,0.145,0.938,0.29,1.407,0.435C279.257-57.382,278.792-57.539,278.418-57.989z"/>
<path fill="#8000C5" d="M289.371-55.015c0.273-0.032,0.554-0.091,0.741,0.195C289.776-54.55,289.524-54.594,289.371-55.015z"/>
<path fill="#8000C5" d="M288-55.331c0.168-0.054,0.32-0.043,0.438,0.104c0.026,0.127-0.03,0.197-0.167,0.174
	C288.122-55.077,287.973-55.124,288-55.331z"/>
<path fill="#8000C5" d="M290.913-54.625c0.198-0.088,0.383-0.101,0.521,0.104C291.196-54.231,291.044-54.375,290.913-54.625z"/>
<path fill="#8000C5" d="M286.648-55.649c0.18-0.07,0.344-0.075,0.464,0.105C286.882-55.251,286.744-55.357,286.648-55.649z"/>
<path fill="#8000C5" d="M285.094-56.024c0.12,0.041,0.24,0.082,0.358,0.122c0.037,0.126-0.017,0.205-0.151,0.18
	C285.149-55.75,285.011-55.82,285.094-56.024z"/>
<path fill="#D52DDB" d="M377.186-68.018c0.114-0.271,0.325-0.358,0.604-0.316C377.736-67.945,377.561-67.791,377.186-68.018z"/>
<path fill="#8000C5" d="M18.536,345.88c0.444,0.147,0.465,0.477,0.36,0.855C18.609,346.521,18.499,346.231,18.536,345.88z"/>
<path fill="#FED570" d="M609.462,246.634c-0.688-0.261-0.839-0.81-0.783-1.468C609.185,245.524,609.5,245.985,609.462,246.634z"/>
<path fill="#FED570" d="M611.125,250.617c-0.699-0.265-0.852-0.815-0.772-1.486C610.869,249.491,611.141,249.979,611.125,250.617z"
	/>
<path fill="#FED570" d="M612.781,254.934c-0.458-0.098-0.539-0.405-0.446-0.809C612.636,254.31,612.889,254.522,612.781,254.934z"/>
<path fill="#FED570" d="M613.777,257.59c-0.458-0.099-0.539-0.407-0.447-0.812C613.646,256.957,613.875,257.184,613.777,257.59z"/>
<path fill="#FED570" d="M614.443,259.583c-0.372-0.103-0.678-0.229-0.254-0.646C614.456,259.082,614.511,259.309,614.443,259.583z"
	/>
<path fill="#FED570" d="M610.135,248.293c-0.46-0.09-0.549-0.395-0.46-0.801C609.984,247.669,610.233,247.881,610.135,248.293z"/>
<path fill="#FED570" d="M608.116,243.646c-0.445-0.102-0.521-0.406-0.436-0.799C607.983,243.028,608.225,243.242,608.116,243.646z"
	/>
<path fill="#FED570" d="M607.535,242.312c-0.499-0.068-0.607-0.377-0.505-0.817C607.352,241.672,607.586,241.904,607.535,242.312z"
	/>
<path fill="#FED570" d="M606.814,240.656c-0.436-0.079-0.549-0.363-0.479-0.762C606.662,240.042,606.896,240.251,606.814,240.656z"
	/>
</svg>
