<svg id="Layer_1" data-name="Layer 1" xmlns="http://www.w3.org/2000/svg" viewBox="0 0 287.05 287.05"><defs><style>.cls-1{fill:#fff;}.cls-2{fill:none;stroke:#fff;stroke-miterlimit:10;stroke-width:3px;}</style></defs><title>HFD</title><path id="_Compound_Path_" data-name="&lt;Compound Path&gt;" class="cls-1" d="M459.61,324.72H411.09v42.72h-9.16V273.1h9.16v43.26h48.52V273.1h9.3v94.34h-9.3V324.72Z" transform="translate(-369 -240.54)"/><path id="_Compound_Path_2" data-name="&lt;Compound Path&gt;" class="cls-1" d="M579.82,327.28v37.33h42.32V373H579.82v40.3h-9.16V318.92h51.48v8.36H579.82Z" transform="translate(-369 -240.54)"/><path id="_Compound_Path_3" data-name="&lt;Compound Path&gt;" class="cls-1" d="M487.4,399.72c31.27,0,48.92,23.32,48.92,47.17s-17.65,47.17-48.92,47.17H459.77V399.72H487.4Zm-18.46,8.36v77.63H487.4c25.2,0,39.49-19.14,39.49-38.81s-14.29-38.81-39.49-38.81H468.93Z" transform="translate(-369 -240.54)"/><rect id="_Rectangle_" data-name="&lt;Rectangle&gt;" class="cls-1" x="135.19" y="32.79" width="97.48" height="8.34"/><rect class="cls-2" x="1.5" y="1.5" width="284.05" height="284.05"/></svg>